<svg width="184" height="82" viewBox="0 0 184 82" fill="none" xmlns="http://www.w3.org/2000/svg">
<path d="M40.894 0.105957C30.1854 0.313326 19.9853 4.71292 12.4854 12.3595C4.98553 20.006 0.784241 30.2893 0.784241 41C0.784241 51.7106 4.98553 61.9939 12.4854 69.6405C19.9853 77.287 30.1854 81.6866 40.894 81.894C46.2633 81.8929 51.5798 80.8344 56.5399 78.7787C61.5001 76.7231 66.0068 73.7106 69.8028 69.9132C73.5987 66.1158 76.6095 61.608 78.6633 56.6471C80.7171 51.6861 81.7737 46.3692 81.7727 41C81.7737 35.6307 80.7171 30.3138 78.6633 25.3528C76.6095 20.3919 73.5987 15.8841 69.8028 12.0867C66.0068 8.28935 61.5001 5.27684 56.5399 3.22118C51.5798 1.16552 46.2633 0.106964 40.894 0.105957ZM143.106 0.105957C137.737 0.106964 132.42 1.16552 127.46 3.22118C122.5 5.27684 117.993 8.28935 114.197 12.0867C110.401 15.8841 107.39 20.3919 105.337 25.3528C103.283 30.3138 102.226 35.6307 102.227 41C102.227 51.8437 106.535 62.2433 114.203 69.911C121.87 77.5786 132.27 81.8863 143.114 81.8863C153.957 81.8863 164.357 77.5786 172.025 69.911C179.692 62.2433 184 51.8437 184 41C183.998 30.1548 179.689 19.7544 172.02 12.0858C164.352 4.41711 153.951 0.10799 143.106 0.105957Z" fill="black"/>
</svg>
