<svg width="74" height="56" viewBox="0 0 74 56" fill="none" xmlns="http://www.w3.org/2000/svg">
<path d="M68.8889 0.666504H5.1111C3.90289 0.666504 2.74417 1.14646 1.88983 2.0008C1.0355 2.85513 0.555542 4.01385 0.555542 5.22206V50.7776C0.555542 51.9858 1.0355 53.1446 1.88983 53.9989C2.74417 54.8532 3.90289 55.3332 5.1111 55.3332H68.8889C70.0971 55.3332 71.2558 54.8532 72.1101 53.9989C72.9645 53.1446 73.4444 51.9858 73.4444 50.7776V5.22206C73.4444 4.01385 72.9645 2.85513 72.1101 2.0008C71.2558 1.14646 70.0971 0.666504 68.8889 0.666504ZM65.3811 50.7776H8.89221L24.8367 34.2865L21.5567 31.1204L5.1111 48.1354V8.68428L33.4239 36.8604C34.2774 37.7089 35.432 38.1851 36.6355 38.1851C37.8391 38.1851 38.9937 37.7089 39.8472 36.8604L68.8889 7.97817V47.8393L52.1244 31.0748L48.9128 34.2865L65.3811 50.7776ZM8.09499 5.22206H65.1989L36.6355 33.6259L8.09499 5.22206Z" fill="black"/>
</svg>
