<svg width="177" height="177" viewBox="0 0 177 177" fill="none" xmlns="http://www.w3.org/2000/svg">
<path d="M147.25 0.375H29.75C13.1042 0.375 0.375 13.1042 0.375 29.75V147.25C0.375 163.896 13.1042 176.625 29.75 176.625H147.25C163.896 176.625 176.625 163.896 176.625 147.25V29.75C176.625 13.1042 163.896 0.375 147.25 0.375ZM88.5 59.125C105.146 59.125 117.875 71.8542 117.875 88.5C117.875 105.146 105.146 117.875 88.5 117.875C71.8542 117.875 59.125 105.146 59.125 88.5C59.125 71.8542 71.8542 59.125 88.5 59.125ZM125.708 39.5417C125.708 32.6875 131.583 27.7917 137.458 27.7917C143.333 27.7917 149.208 33.6667 149.208 39.5417C149.208 45.4167 144.312 51.2917 137.458 51.2917C130.604 51.2917 125.708 46.3958 125.708 39.5417ZM147.25 157.042H29.75C23.875 157.042 19.9583 153.125 19.9583 147.25V88.5H39.5417C39.5417 115.917 61.0833 137.458 88.5 137.458C115.917 137.458 137.458 115.917 137.458 88.5H157.042V147.25C157.042 153.125 153.125 157.042 147.25 157.042Z" fill="black"/>
</svg>
