<svg width="67" height="64" viewBox="0 0 67 64" fill="none" xmlns="http://www.w3.org/2000/svg">
<path d="M49.6667 8.99992H61.7917C62.8636 8.99992 63.8916 9.40379 64.6496 10.1227C65.4075 10.8416 65.8334 11.8166 65.8334 12.8333V54.9999C65.8334 57.0332 64.9817 58.9833 63.4658 60.4211C61.9499 61.8588 59.8939 62.6666 57.75 62.6666C55.6062 62.6666 53.5502 61.8588 52.0342 60.4211C50.5183 58.9833 49.6667 57.0332 49.6667 54.9999V5.16659C49.6667 4.14992 49.2409 3.1749 48.4829 2.45601C47.7249 1.73712 46.6969 1.33325 45.625 1.33325H5.20835C4.13644 1.33325 3.10842 1.73712 2.35046 2.45601C1.59251 3.1749 1.16669 4.14992 1.16669 5.16659V51.1666C1.16669 54.2166 2.44414 57.1416 4.71802 59.2983C6.9919 61.455 10.0759 62.6666 13.2917 62.6666H57.75M17.3334 16.6666H33.5M17.3334 31.9999H33.5M17.3334 47.3333H33.5" stroke="black" stroke-width="2" stroke-linecap="round" stroke-linejoin="round"/>
</svg>
