<svg width="171" height="145" viewBox="0 0 171 145" fill="none" xmlns="http://www.w3.org/2000/svg">
<path fill-rule="evenodd" clip-rule="evenodd" d="M171 17.2407C164.587 20.2003 157.796 22.1399 150.848 22.9965C158.143 18.4696 163.627 11.2809 166.272 2.77876C159.372 7.04131 151.842 10.0398 143.999 11.6478C140.693 7.98696 136.718 5.07563 132.316 3.09053C127.914 1.10544 123.177 0.0879876 118.392 0.0999579C99.0176 0.0999579 83.3112 16.4624 83.3112 36.662C83.3112 39.5218 83.619 42.3092 84.2175 44.988C70.3195 44.2896 56.7116 40.5328 44.2619 33.9571C31.8122 27.3815 20.794 18.1314 11.9102 6.79696C8.79441 12.3572 7.15221 18.7037 7.15635 25.1685C7.16558 31.2137 8.59784 37.1612 11.3237 42.4734C14.0495 47.7857 17.983 52.2953 22.7687 55.5946C17.2048 55.4142 11.7595 53.8484 6.8742 51.0243V51.4768C6.8742 69.1877 18.9639 83.9663 35.0037 87.3239C29.8364 88.7838 24.4258 89.0002 19.1691 87.9574C23.6322 102.474 36.5854 113.044 51.9412 113.343C39.4583 123.528 24.132 129.036 8.37045 128.999C5.57303 128.996 2.77815 128.821 0 128.474C16.0938 139.233 34.7447 144.93 53.7795 144.9C118.306 144.9 153.592 89.1972 153.592 40.8974C153.592 39.3136 153.558 37.7299 153.49 36.1642C160.345 31.0143 166.275 24.6087 171 17.2497V17.2407Z" fill="black"/>
</svg>
